<?xml version="1.0" encoding="UTF-8"?>
<svg width="16" height="16" viewBox="0 0 16 16" fill="none" xmlns="http://www.w3.org/2000/svg">
    <path d="M13.359 2.64L10.682 5.317C10.249 5.175 9.779 5.1 9.293 5.1C6.647 5.1 4.5 7.247 4.5 9.893C4.5 10.379 4.575 10.849 4.717 11.282L1.5 14.5L2.5 15.5L14.359 3.64L13.359 2.64ZM9.293 12.686C7.353 12.686 5.793 11.126 5.793 9.186C5.793 8.851 5.84 8.528 5.922 8.218L10.261 3.879C10.571 3.797 10.894 3.75 11.229 3.75C13.169 3.75 14.729 5.31 14.729 7.25C14.729 7.585 14.682 7.908 14.6 8.218L10.261 12.557C9.951 12.639 9.628 12.686 9.293 12.686Z" fill="currentColor"/>
</svg> 