<svg width="20" height="20" viewBox="0 0 20 20" fill="none" xmlns="http://www.w3.org/2000/svg">
<path d="M3.125 0C2.2962 0 1.50134 0.32924 0.915291 0.915291C0.32924 1.50134 0 2.2962 0 3.125V3.75H17.5V3.125C17.5 2.2962 17.1708 1.50134 16.5847 0.915291C15.9987 0.32924 15.2038 0 14.375 0H3.125ZM17.5 5H0V14.375C0 15.2038 0.32924 15.9987 0.915291 16.5847C1.50134 17.1708 2.2962 17.5 3.125 17.5H8.25C7.58895 16.206 7.35491 14.7358 7.58147 13.3005C7.80803 11.8651 8.48355 10.5385 9.51103 9.51103C10.5385 8.48355 11.8651 7.80803 13.3005 7.58147C14.7358 7.35491 16.206 7.58895 17.5 8.25V5ZM20 14.375C20 15.8668 19.4074 17.2976 18.3525 18.3525C17.2976 19.4074 15.8668 20 14.375 20C12.8832 20 11.4524 19.4074 10.3975 18.3525C9.34263 17.2976 8.75 15.8668 8.75 14.375C8.75 12.8832 9.34263 11.4524 10.3975 10.3975C11.4524 9.34263 12.8832 8.75 14.375 8.75C15.8668 8.75 17.2976 9.34263 18.3525 10.3975C19.4074 11.4524 20 12.8832 20 14.375ZM14.375 11.25C14.2092 11.25 14.0503 11.3158 13.9331 11.4331C13.8158 11.5503 13.75 11.7092 13.75 11.875V14.375C13.75 14.5408 13.8158 14.6997 13.9331 14.8169C14.0503 14.9342 14.2092 15 14.375 15C14.5408 15 14.6997 14.9342 14.8169 14.8169C14.9342 14.6997 15 14.5408 15 14.375V11.875C15 11.7092 14.9342 11.5503 14.8169 11.4331C14.6997 11.3158 14.5408 11.25 14.375 11.25ZM14.375 17.6562C14.5822 17.6562 14.7809 17.5739 14.9274 17.4274C15.0739 17.2809 15.1562 17.0822 15.1562 16.875C15.1562 16.6678 15.0739 16.4691 14.9274 16.3226C14.7809 16.1761 14.5822 16.0938 14.375 16.0938C14.1678 16.0938 13.9691 16.1761 13.8226 16.3226C13.6761 16.4691 13.5938 16.6678 13.5938 16.875C13.5938 17.0822 13.6761 17.2809 13.8226 17.4274C13.9691 17.5739 14.1678 17.6562 14.375 17.6562Z" fill="black"/>
</svg>
